<svg width="36" height="36" viewBox="0 0 36 36" fill="none" xmlns="http://www.w3.org/2000/svg">
<path d="M17.6725 35.098C27.4328 35.098 35.345 27.241 35.345 17.549C35.345 7.85695 27.4328 0 17.6725 0C7.91225 0 0 7.85695 0 17.549C0 27.241 7.91225 35.098 17.6725 35.098Z" fill="#FAB631"/>
<path d="M12.333 26V11.0703H17.5625C19.374 11.0703 20.748 11.4189 21.6846 12.1162C22.6211 12.8066 23.0894 13.8218 23.0894 15.1616C23.0894 15.8931 22.9014 16.5391 22.5254 17.0996C22.1494 17.6533 21.6265 18.0601 20.9565 18.3198C21.7222 18.5112 22.3237 18.8975 22.7612 19.4785C23.2056 20.0596 23.4277 20.7705 23.4277 21.6113C23.4277 23.0469 22.9697 24.1338 22.0537 24.8721C21.1377 25.6104 19.832 25.9863 18.1367 26H12.333ZM15.4092 19.499V23.5288H18.0444C18.769 23.5288 19.333 23.3579 19.7363 23.0161C20.1465 22.6675 20.3516 22.189 20.3516 21.5806C20.3516 20.2134 19.644 19.5195 18.229 19.499H15.4092ZM15.4092 17.3252H17.6855C19.2373 17.2979 20.0132 16.6792 20.0132 15.4692C20.0132 14.7925 19.8149 14.3071 19.4185 14.0132C19.0288 13.7124 18.4102 13.562 17.5625 13.562H15.4092V17.3252Z" fill="white"/>
</svg>
