<svg width="693" height="677" viewBox="0 0 693 677" fill="none" xmlns="http://www.w3.org/2000/svg">
<g filter="url(#filter0_df_161_15181)">
<circle cx="346.5" cy="330.5" r="174.5" fill="#FFB121"/>
</g>
<g filter="url(#filter1_f_161_15181)">
<path d="M564 330.5C564 450.622 466.622 548 346.5 548C226.378 548 129 450.622 129 330.5C129 210.378 226.378 113 346.5 113C466.622 113 564 210.378 564 330.5ZM138.108 330.5C138.108 445.592 231.408 538.892 346.5 538.892C461.592 538.892 554.892 445.592 554.892 330.5C554.892 215.408 461.592 122.108 346.5 122.108C231.408 122.108 138.108 215.408 138.108 330.5Z" fill="url(#paint0_linear_161_15181)" fill-opacity="0.7"/>
</g>
<g filter="url(#filter2_f_161_15181)">
<path d="M615 331C615 479.012 495.012 599 347 599C198.988 599 79 479.012 79 331C79 182.988 198.988 63 347 63C495.012 63 615 182.988 615 331ZM90.2224 331C90.2224 472.814 205.186 587.778 347 587.778C488.814 587.778 603.778 472.814 603.778 331C603.778 189.186 488.814 74.2224 347 74.2224C205.186 74.2224 90.2224 189.186 90.2224 331Z" fill="url(#paint1_linear_161_15181)" fill-opacity="0.5"/>
</g>
<g filter="url(#filter3_f_161_15181)">
<path d="M676 330.5C676 512.478 528.478 660 346.5 660C164.522 660 17 512.478 17 330.5C17 148.522 164.522 1 346.5 1C528.478 1 676 148.522 676 330.5ZM30.7976 330.5C30.7976 504.858 172.142 646.202 346.5 646.202C520.858 646.202 662.202 504.858 662.202 330.5C662.202 156.142 520.858 14.7976 346.5 14.7976C172.142 14.7976 30.7976 156.142 30.7976 330.5Z" fill="url(#paint2_linear_161_15181)" fill-opacity="0.3"/>
</g>
<defs>
<filter id="filter0_df_161_15181" x="18" y="2" width="657" height="657" filterUnits="userSpaceOnUse" color-interpolation-filters="sRGB">
<feFlood flood-opacity="0" result="BackgroundImageFix"/>
<feColorMatrix in="SourceAlpha" type="matrix" values="0 0 0 0 0 0 0 0 0 0 0 0 0 0 0 0 0 0 127 0" result="hardAlpha"/>
<feOffset dy="4"/>
<feGaussianBlur stdDeviation="2"/>
<feComposite in2="hardAlpha" operator="out"/>
<feColorMatrix type="matrix" values="0 0 0 0 0 0 0 0 0 0 0 0 0 0 0 0 0 0 0.25 0"/>
<feBlend mode="normal" in2="BackgroundImageFix" result="effect1_dropShadow_161_15181"/>
<feBlend mode="normal" in="SourceGraphic" in2="effect1_dropShadow_161_15181" result="shape"/>
<feGaussianBlur stdDeviation="77" result="effect2_foregroundBlur_161_15181"/>
</filter>
<filter id="filter1_f_161_15181" x="112" y="96" width="469" height="469" filterUnits="userSpaceOnUse" color-interpolation-filters="sRGB">
<feFlood flood-opacity="0" result="BackgroundImageFix"/>
<feBlend mode="normal" in="SourceGraphic" in2="BackgroundImageFix" result="shape"/>
<feGaussianBlur stdDeviation="8.5" result="effect1_foregroundBlur_161_15181"/>
</filter>
<filter id="filter2_f_161_15181" x="62" y="46" width="570" height="570" filterUnits="userSpaceOnUse" color-interpolation-filters="sRGB">
<feFlood flood-opacity="0" result="BackgroundImageFix"/>
<feBlend mode="normal" in="SourceGraphic" in2="BackgroundImageFix" result="shape"/>
<feGaussianBlur stdDeviation="8.5" result="effect1_foregroundBlur_161_15181"/>
</filter>
<filter id="filter3_f_161_15181" x="0" y="-16" width="693" height="693" filterUnits="userSpaceOnUse" color-interpolation-filters="sRGB">
<feFlood flood-opacity="0" result="BackgroundImageFix"/>
<feBlend mode="normal" in="SourceGraphic" in2="BackgroundImageFix" result="shape"/>
<feGaussianBlur stdDeviation="8.5" result="effect1_foregroundBlur_161_15181"/>
</filter>
<linearGradient id="paint0_linear_161_15181" x1="346.5" y1="113" x2="346.5" y2="548" gradientUnits="userSpaceOnUse">
<stop stop-color="#F6AC24"/>
<stop offset="1" stop-color="#F6AC24" stop-opacity="0.41"/>
</linearGradient>
<linearGradient id="paint1_linear_161_15181" x1="347" y1="63" x2="347" y2="599" gradientUnits="userSpaceOnUse">
<stop stop-color="#F6AC24" stop-opacity="0.37"/>
<stop offset="1" stop-color="#F6AC24" stop-opacity="0.26"/>
</linearGradient>
<linearGradient id="paint2_linear_161_15181" x1="346.5" y1="1" x2="346.5" y2="660" gradientUnits="userSpaceOnUse">
<stop stop-color="#F6AC24" stop-opacity="0.37"/>
<stop offset="1" stop-color="#F6AC24" stop-opacity="0.26"/>
</linearGradient>
</defs>
</svg>
