<svg width="32" height="32" viewBox="0 0 32 32" fill="none" xmlns="http://www.w3.org/2000/svg">
<path d="M16 32C24.8366 32 32 24.8366 32 16C32 7.16344 24.8366 0 16 0C7.16344 0 0 7.16344 0 16C0 24.8366 7.16344 32 16 32Z" fill="#FF4500"/>
<path d="M26.6706 15.9997C26.6229 14.7111 25.5411 13.7049 24.2485 13.7486C23.6758 13.7685 23.1309 14.0031 22.7173 14.3969C20.8958 13.156 18.7561 12.4759 16.5567 12.4282L17.5948 7.43689L21.0191 8.15675C21.1145 9.0357 21.902 9.67204 22.7809 9.57659C23.6599 9.48114 24.2962 8.69367 24.2008 7.81472C24.1053 6.93577 23.3179 6.29943 22.4389 6.39488C21.9338 6.44659 21.4804 6.74089 21.2299 7.17838L17.3084 6.39488C17.0419 6.33523 16.7755 6.50227 16.7158 6.77271C16.7158 6.77669 16.7158 6.77669 16.7158 6.78067L15.5346 12.3327C13.3074 12.3685 11.1399 13.0526 9.29449 14.3014C8.35589 13.4185 6.87639 13.4622 5.99347 14.4048C5.11055 15.3434 5.1543 16.8229 6.09688 17.7058C6.27982 17.8769 6.49061 18.024 6.72526 18.1274C6.70935 18.3621 6.70935 18.5967 6.72526 18.8314C6.72526 22.4148 10.9012 25.33 16.0516 25.33C21.202 25.33 25.378 22.4187 25.378 18.8314C25.3939 18.5967 25.3939 18.3621 25.378 18.1274C26.1814 17.7257 26.6865 16.8985 26.6706 15.9997ZM10.6706 17.6024C10.6706 16.7195 11.3904 15.9997 12.2734 15.9997C13.1563 15.9997 13.8761 16.7195 13.8761 17.6024C13.8761 18.4854 13.1563 19.2052 12.2734 19.2052C11.3865 19.1973 10.6706 18.4854 10.6706 17.6024ZM19.9651 22.0011C18.8277 22.8562 17.4357 23.2937 16.0119 23.2341C14.5881 23.2937 13.1961 22.8562 12.0586 22.0011C11.9075 21.8182 11.9353 21.5438 12.1183 21.3926C12.2773 21.2614 12.504 21.2614 12.6671 21.3926C13.6296 22.0966 14.8028 22.4545 15.996 22.3989C17.1891 22.4625 18.3663 22.1205 19.3407 21.4245C19.5157 21.2534 19.8021 21.2574 19.9731 21.4324C20.1441 21.6074 20.1401 21.8938 19.9651 22.0648V22.0011ZM19.6788 19.2609C18.7959 19.2609 18.076 18.541 18.076 17.6581C18.076 16.7752 18.7959 16.0553 19.6788 16.0553C20.5617 16.0553 21.2816 16.7752 21.2816 17.6581C21.3174 18.541 20.6293 19.2848 19.7464 19.3206C19.7186 19.3206 19.6947 19.3206 19.6668 19.3206L19.6788 19.2609Z" fill="white"/>
</svg>
