<?xml version="1.0" encoding="utf-8"?>
<!-- Generator: Adobe Illustrator 25.2.3, SVG Export Plug-In . SVG Version: 6.00 Build 0)  -->
<svg version="1.0" id="Layer_1" xmlns="http://www.w3.org/2000/svg" xmlns:xlink="http://www.w3.org/1999/xlink" x="0px" y="0px"
	 viewBox="0 0 1000 580" style="enable-background:new 0 0 1000 580;" xml:space="preserve">
<style type="text/css">
	.st0{fill:#EC2429;}
	.st1{fill:#F2F1F0;}
</style>
<polygon class="st0" points="220.1,127 334.6,13.3 499.8,178.5 663.7,14.6 774.5,125.4 610.8,289 775.5,453.7 662.5,566.7 
	498.6,402.8 334.7,566.7 223.1,455.2 388.1,290.2 "/>
<path class="st1" d="M724.1,292.4c0-23.9,0-47.8,0-71.7c0-6.8,4.5-11.6,11.4-11.5c11.7,0.1,23.5-0.5,35.1,0.8
	c17.3,2,31,16.1,33.9,33.1c0.3,1.5,0.2,3.1,0.2,4.6c0,28.9-0.6,57.9,0.2,86.8c0.6,21.3-17.3,38.1-33.6,40.3
	c-6,0.8-12.1,0.7-18.2,0.8c-6,0.1-12,0.1-17.9,0c-6.4-0.1-11-4.8-11-11.1C724.1,340.4,724.1,316.4,724.1,292.4z M743.8,356.9
	c6.9,0,13.8,0.7,20.5-0.2c12.5-1.7,20.6-10.5,20.5-23.7c-0.2-27.5-0.1-55-0.1-82.4c0-9.9-5.1-17.2-14.3-20.9
	c-8.7-3.5-17.6-1.2-26.6-2C743.8,271,743.8,313.8,743.8,356.9z"/>
<path class="st1" d="M892.8,292.3c0-16,0.3-32.1-0.1-48.1c-0.3-15.3,13.4-30.3,27.5-33.5c12.1-2.8,24-2.1,34.6,5.5
	c10.5,7.5,16.2,17.5,16.1,30.6c-0.1,30.6,0,61.2-0.1,91.8c0,8.5-2.5,16.1-8,22.8c-18.9,23.1-57.8,17.5-68.2-9.9
	c-1.2-3.2-1.9-6.7-1.9-10.1C892.7,325.1,892.8,308.7,892.8,292.3z M951.1,292.7c0-15.2,0.1-30.4,0-45.6
	c-0.1-10.4-9.9-20.3-19.6-19.1c-10.6,1.3-18.6,6.3-18.9,19.4c-0.6,30-0.3,60-0.1,90c0.1,11.6,10.6,21,21.1,19.4
	c10.8-1.6,17.5-9.5,17.5-20.5C951.1,321.9,951.1,307.3,951.1,292.7z"/>
<path class="st1" d="M152.3,282.9c14,0,27.6,0,41.6,0c0-1.4,0-2.6,0-3.9c0-20.2,0.2-40.4-0.1-60.6c-0.1-5.6,3.2-8.2,6.3-9.2
	c5.2-1.7,10.1-0.1,12.5,4.1c0.6,1,0.7,2.3,0.7,3.4c0,50.3,0,100.7,0,151c0,4.2-3.4,7.8-7.6,7.9c-2.3,0-5,0.1-7-0.8
	c-3.2-1.5-5-4.3-5-8.3c0.2-20.3,0.1-40.7,0.1-61c0-1.3,0-2.6,0-4.1c-13.8,0-27.4,0-41.6,0c0,1.3,0,2.6,0,4c0,20.3,0,40.7,0,61
	c0,4.4-2.4,8.1-6,9.1c-4.6,1.4-10.3-0.3-12.5-3.9c-0.6-1-0.9-2.5-0.9-3.7c0-50.5,0-100.9-0.1-151.4c0-3.6,2.3-5.6,4.9-6.8
	c3.7-1.8,7.7-1.7,11.2,0.9c2.5,1.8,3.5,4.2,3.4,7.4c-0.1,20.2-0.1,40.4-0.1,60.6C152.3,279.9,152.3,281.2,152.3,282.9z"/>
<path class="st1" d="M612.2,280.2c0-20.7,0-41.4,0-62.1c0-6.1,3.1-9.2,9.3-9.1c1.9,0,4-0.2,5.6,0.6c3.1,1.4,4.9,3.7,4.9,7.6
	c-0.2,28.6-0.2,57.1-0.2,85.7c0,10.8,0.1,21.5,0.2,32.3c0.1,10.5,4.5,17.2,13.2,20.4c10.2,3.7,21.3-1.8,24.5-12.2
	c0.8-2.5,1.2-5.1,1.2-7.7c0.1-33.2,0.1-66.5,0-99.7c0-6.1-0.3-12.2-0.3-18.3c0-5.1,3.4-8.4,8.5-8.6c8.9-0.3,11.4,2.1,11.4,11
	c0,39.6-0.3,79.2,0.1,118.7c0.2,20.1-17.7,37.1-36.7,37.3c-13.9,0.1-25.3-3.9-34.2-14.5c-4.8-5.8-7.6-12.4-7.6-20
	C612.2,321.1,612.2,300.6,612.2,280.2z"/>
<path class="st1" d="M444.3,375.7c-19.1,0.5-30.7-6.9-38.8-20.3c-1.7-2.9-2.7-6.4-3.3-9.7c-0.9-4.7,0.9-7.9,4.6-9.9
	c3.6-1.9,9.4-1.4,12.1,1.3c1.6,1.7,3.1,3.9,3.8,6.2c2.7,8.6,11.7,14.6,20.8,13.6c9-1.1,17-9.2,16.9-18c-0.1-6.9-3-13.2-7.5-18.2
	c-9.7-10.7-19.8-21-30-31.2c-9-9.1-17.5-18.4-20.2-31.4c-5.3-25,7.7-44.5,31.9-48.3c20.8-3.3,37.4,8.4,43.5,23.4
	c1.1,2.7,1.7,5.7,1.8,8.6c0.3,4.9-3.2,8.3-8.1,8.4c-8.2,0.1-10-1.1-12.8-8.9c-2.7-7.7-12-14.1-19-13.2c-10.2,1.3-17.9,8.4-18.3,18
	c-0.3,7,2.9,13.4,7.5,18.5c10,11,20.5,21.6,30.9,32.3c7.7,7.8,15.3,15.7,18.2,26.6c5.6,21.2,1.4,37.4-18.5,48.6
	C455.2,374.7,449.7,375.7,444.3,375.7z"/>
<path class="st1" d="M266.9,227.7c0,17.6,0,34.8,0,52.5c1.6,0,3.1,0,4.6,0c7.7,0,15.3,0,23,0c5.3,0,8.6,3.4,8.6,8.8
	c0,6-2.8,9.2-8.3,9.3c-9.1,0.1-18.2,0-27.6,0c0,19.6,0,38.9,0,58.7c8.4,0,16.7-0.1,25,0c2.2,0,4.7,0,6.6,1c4,2.1,5.6,7.3,4.3,11.8
	c-0.9,3.2-5,5.8-9.4,5.8c-11.4,0-22.7,0-34.1,0c-7.2,0-11.8-4.7-11.8-11.9c0-47.4,0.1-94.7-0.2-142.1c-0.1-7.8,5.4-13.1,12.7-13.2
	c11.1-0.1,22.2-0.2,33.4,0c5.5,0.1,10.2,3.5,9.6,10.7c-0.5,5.2-3.9,8.4-10,8.4C284.6,227.7,276,227.7,266.9,227.7z"/>
<path class="st1" d="M532.7,227.8c-6.4,0-12.1,0-17.8,0c-5.9-0.1-8.9-3.7-8.9-10.3c0-5.5,3.1-8.5,8.7-8.5c19,0,38,0,57,0
	c5.4,0,9,3.5,9,8.8c0,5.5-3.9,9.9-9,10c-6.1,0.1-12.2,0-18.7,0c-0.1,1.5-0.2,2.7-0.2,4c0,44.8,0,89.6,0,134.5c0,6.6-2.8,9.5-9.1,9.5
	c-7.5,0-11-3-11-9.9c0-44.2,0-88.4,0-132.7C532.7,231.6,532.7,230,532.7,227.8z"/>
<path class="st1" d="M56.2,227.7c-6.3,0-12.1,0.1-18,0c-4,0-7.8-2.8-8.7-6.1c-1.4-4.8-0.1-8.8,3.9-11.1c1.4-0.8,3.4-1.2,5.1-1.2
	c18.6-0.1,37.3-0.1,55.9,0c5.2,0,8.8,3.3,9,8.1c0.2,5.6-3.3,10.1-8.5,10.4c-5,0.2-10,0.1-15.1,0.1c-1.3,0-2.6,0-4.2,0
	c0,1.9,0,3.5,0,5c0,44.6,0,89.2,0,133.7c0,6.4-2.9,9.3-9.4,9.3c-6.6,0-10-3.2-10-9.4c0-44.5,0-88.9,0-133.4
	C56.2,231.3,56.2,229.8,56.2,227.7z"/>
<path class="st1" d="M839,292c0-24.6,0.2-49.3-0.1-73.9c-0.1-5.5,4.2-9.6,10.4-9.6c5,0,9.4,4.4,9.4,9.5c-0.2,49.5-0.1,99-0.1,148.5
	c0,6.1-3.3,9.2-9.6,9.2c-6.5,0-9.9-3.2-9.9-9.4C839,341.5,839,316.8,839,292z"/>
</svg>
