<svg width="611" height="443" viewBox="0 0 611 443" fill="none" xmlns="http://www.w3.org/2000/svg">
<path d="M547.966 142.363L547.985 142.711L547.992 142.827C548.051 143.614 548.304 144.341 548.754 145.01C549.21 145.675 549.804 146.195 550.536 146.571C550.903 146.796 551.089 146.871 551.719 147.008C552.349 147.144 552.543 147.154 552.965 147.102C553.369 147.053 553.77 146.986 554.168 146.9C554.942 146.661 555.604 146.257 556.154 145.691C556.509 145.32 556.696 145.027 556.898 144.645L557.06 144.337C557.637 143.239 557.752 141.962 557.334 140.778C556.791 139.231 555.408 138.033 553.745 137.672C552.5 137.402 551.188 137.617 550.126 138.263C548.679 139.143 547.872 140.717 547.966 142.363" fill="#FFC350"/>
<path d="M510.206 115.531C510.418 115.667 510.629 115.802 510.839 115.937C510.022 114.733 509.203 113.528 508.385 112.325L508.382 112.416C508.441 113.235 508.705 113.993 509.174 114.688C509.883 115.729 511.002 116.478 512.264 116.752L512.35 116.771C514.956 117.336 517.578 115.741 518.116 113.264C518.653 110.787 516.929 108.248 514.322 107.682L514.237 107.663C513.374 107.478 512.526 107.511 511.691 107.761C510.597 108.092 509.34 108.936 508.906 110L508.872 110.084C510.115 109.327 511.359 108.571 512.602 107.813C512.356 107.848 512.107 107.885 511.858 107.92C511.115 107.955 510.431 108.161 509.808 108.539C508.872 109.106 508.213 110.022 507.986 111.065C507.834 111.778 507.878 112.483 508.121 113.18C508.502 114.265 509.242 114.913 510.206 115.531" fill="#FFC350"/>
<path d="M538.068 113.622L537.952 113.835L537.842 114.031L537.774 114.155C537.512 114.633 537.494 114.951 537.481 115.483C537.46 116.25 538.112 117.21 538.859 117.513C539.372 117.72 539.817 117.832 540.368 117.804L540.638 117.791L540.892 117.778C541.921 117.727 542.858 117.167 543.328 116.296C543.808 115.408 543.745 114.309 543.166 113.458C542.587 112.606 541.558 112.095 540.506 112.139C539.472 112.183 538.545 112.758 538.068 113.622" fill="#FFC350"/>
<path d="M600.807 138.266C600.223 138.163 599.676 138.089 599.07 138.053C598.423 138.083 597.828 138.262 597.285 138.591C596.472 139.084 595.898 139.881 595.701 140.789C595.568 141.408 595.607 142.022 595.817 142.629C595.956 142.901 596.093 143.174 596.231 143.447C596.59 143.969 597.056 144.38 597.633 144.674C598.198 144.894 598.727 145.052 599.301 145.202C601.271 145.714 603.304 144.354 603.701 142.526C604.099 140.695 602.812 138.617 600.807 138.266" fill="#FFC350"/>
<path d="M513.966 436.363L513.985 436.711L513.992 436.827C514.051 437.614 514.304 438.341 514.754 439.01C515.21 439.675 515.804 440.195 516.536 440.571C516.903 440.796 517.089 440.871 517.719 441.008C518.349 441.144 518.543 441.154 518.965 441.102C519.369 441.053 519.77 440.986 520.168 440.9C520.942 440.661 521.604 440.257 522.154 439.691C522.509 439.32 522.696 439.027 522.898 438.645L523.06 438.337C523.637 437.239 523.752 435.962 523.334 434.778C522.791 433.231 521.408 432.033 519.745 431.672C518.5 431.402 517.188 431.617 516.126 432.263C514.679 433.143 513.872 434.717 513.966 436.363" fill="#FFC350"/>
<path d="M476.206 409.531C476.418 409.667 476.629 409.802 476.839 409.937C476.022 408.733 475.203 407.528 474.385 406.325L474.382 406.416C474.441 407.235 474.705 407.993 475.174 408.688C475.883 409.729 477.002 410.478 478.264 410.752L478.35 410.771C480.956 411.336 483.578 409.741 484.116 407.264C484.653 404.787 482.929 402.248 480.322 401.682L480.237 401.663C479.374 401.478 478.526 401.511 477.691 401.761C476.597 402.092 475.34 402.936 474.906 404L474.872 404.084C476.115 403.327 477.359 402.571 478.602 401.813C478.356 401.848 478.107 401.885 477.858 401.92C477.115 401.955 476.431 402.161 475.808 402.539C474.872 403.106 474.213 404.022 473.986 405.065C473.834 405.778 473.878 406.483 474.121 407.18C474.502 408.265 475.242 408.913 476.206 409.531" fill="#FFC350"/>
<path d="M504.068 407.622L503.952 407.835L503.842 408.031L503.774 408.155C503.512 408.633 503.494 408.951 503.481 409.483C503.46 410.25 504.112 411.21 504.859 411.513C505.372 411.72 505.817 411.832 506.368 411.804L506.638 411.791L506.892 411.778C507.921 411.727 508.858 411.167 509.328 410.296C509.808 409.408 509.745 408.309 509.166 407.458C508.587 406.606 507.558 406.095 506.506 406.139C505.472 406.183 504.545 406.758 504.068 407.622" fill="#FFC350"/>
<path d="M566.807 432.266C566.223 432.163 565.676 432.089 565.07 432.053C564.423 432.083 563.828 432.262 563.285 432.591C562.472 433.084 561.898 433.881 561.701 434.789C561.568 435.408 561.607 436.022 561.817 436.629C561.956 436.901 562.093 437.174 562.231 437.447C562.59 437.969 563.056 438.38 563.633 438.674C564.198 438.894 564.727 439.052 565.301 439.202C567.271 439.714 569.304 438.354 569.701 436.526C570.099 434.695 568.812 432.617 566.807 432.266" fill="#FFC350"/>
<path d="M610.089 403.793C609.998 403.023 609.905 402.156 609.171 401.653C608.856 401.436 608.571 401.246 608.248 401.062L608.225 401.05C607.446 400.605 606.399 400.556 605.564 400.809C604.417 401.157 603.543 402.082 603.298 403.21C602.919 404.954 604.134 406.741 605.967 407.139C606.856 407.332 607.791 407.179 608.549 406.718C609.534 406.119 610.227 404.943 610.089 403.793" fill="#FFC350"/>
<path d="M541.227 258.856L540.879 258.87L540.763 258.875C539.975 258.92 539.243 259.161 538.567 259.601C537.895 260.045 537.365 260.63 536.977 261.356C536.746 261.719 536.668 261.904 536.521 262.532C536.374 263.159 536.361 263.353 536.406 263.775C536.448 264.181 536.508 264.583 536.588 264.982C536.814 265.76 537.207 266.428 537.764 266.988C538.129 267.349 538.418 267.541 538.797 267.749L539.103 267.916C540.19 268.511 541.466 268.647 542.656 268.249C544.212 267.732 545.433 266.369 545.821 264.712C546.112 263.472 545.919 262.156 545.29 261.083C544.435 259.622 542.875 258.79 541.227 258.856" fill="#FFC350"/>
<path d="M570.128 249.436L569.917 249.316L569.722 249.204L569.6 249.133C569.126 248.864 568.809 248.84 568.277 248.818C567.51 248.784 566.539 249.421 566.224 250.163C566.009 250.672 565.89 251.115 565.908 251.667L565.917 251.937L565.926 252.19C565.959 253.22 566.504 254.166 567.367 254.651C568.247 255.146 569.347 255.101 570.207 254.535C571.069 253.971 571.596 252.951 571.57 251.898C571.543 250.863 570.984 249.927 570.128 249.436" fill="#FFC350"/>
<path d="M544.447 311.758C544.559 311.175 544.643 310.63 544.689 310.024C544.669 309.377 544.5 308.78 544.181 308.231C543.7 307.41 542.913 306.822 542.009 306.61C541.392 306.468 540.777 306.496 540.168 306.697C539.892 306.83 539.618 306.963 539.343 307.097C538.814 307.446 538.396 307.906 538.092 308.478C537.862 309.04 537.696 309.566 537.536 310.137C536.992 312.099 538.318 314.154 540.14 314.581C541.963 315.009 544.062 313.756 544.447 311.758" fill="#FFC350"/>
<path d="M286.765 157.958C286.878 157.376 286.961 156.83 287.007 156.225C286.987 155.577 286.818 154.98 286.499 154.431C286.019 153.61 285.231 153.023 284.327 152.811C283.71 152.668 283.096 152.697 282.486 152.897C282.211 153.031 281.936 153.164 281.661 153.297C281.133 153.647 280.714 154.106 280.41 154.678C280.181 155.24 280.015 155.766 279.855 156.338C279.311 158.299 280.636 160.354 282.458 160.782C284.282 161.209 286.381 159.957 286.765 157.958" fill="#FFC350"/>
<path d="M202.638 13.2259C195.44 13.2259 189.578 7.79515 189.329 1.00879C189.329 1.00389 189.325 0.999963 189.32 0.999963V0.999963V0.999963C189.315 0.999963 189.311 1.00389 189.311 1.00879C189.062 7.79515 183.198 13.2259 176 13.2259L176.402 13.2325L176 13.2392C183.198 13.2392 189.062 18.6682 189.311 25.4563C189.311 25.4612 189.315 25.4651 189.32 25.4651V25.4651V25.4651C189.325 25.4651 189.329 25.4612 189.329 25.4563C189.578 18.6682 195.44 13.2392 202.638 13.2392L202.236 13.2325L202.638 13.2259Z" fill="#FFC350"/>
<path d="M125.637 429.226C118.44 429.226 112.577 423.797 112.328 417.008C112.328 417.004 112.324 417 112.32 417V417V417C112.314 417 112.31 417.004 112.31 417.01C112.061 423.797 106.198 429.226 99 429.226L99.4028 429.233L99 429.239C106.198 429.239 112.061 434.668 112.31 441.455C112.31 441.461 112.314 441.465 112.32 441.465V441.465V441.465C112.324 441.465 112.328 441.461 112.328 441.457C112.577 434.669 118.44 429.239 125.637 429.239L125.235 429.233L125.637 429.226" fill="#FFC350"/>
<path d="M418.955 26.7124L418.974 27.0603L418.981 27.1764C419.039 27.9635 419.293 28.6905 419.743 29.3593C420.199 30.0241 420.793 30.5447 421.525 30.9207C421.891 31.1456 422.077 31.2201 422.708 31.3569C423.337 31.4936 423.532 31.5034 423.953 31.4512C424.358 31.4022 424.759 31.3353 425.157 31.249C425.93 31.01 426.593 30.6066 427.143 30.0404C427.498 29.6695 427.685 29.3767 427.887 28.9948L428.049 28.6862C428.625 27.5889 428.74 26.311 428.323 25.1278C427.78 23.5805 426.396 22.3827 424.734 22.0218C423.489 21.7515 422.177 21.9661 421.114 22.6126C419.668 23.4921 418.861 25.0661 418.955 26.7124" fill="#FFC350"/>
<path d="M9.47286 3.74282L9.38028 3.40697L9.34866 3.29503C9.12484 2.53812 8.72271 1.88146 8.14086 1.32338C7.55479 0.770319 6.86367 0.387667 6.06837 0.175464C5.66272 0.0334392 5.46507 5.41031e-05 4.82015 5.41031e-05C4.17576 5.41031e-05 3.98357 0.031765 3.58285 0.172119C3.19776 0.30579 2.82039 0.456204 2.44971 0.624963C1.74435 1.02263 1.18288 1.55729 0.764935 2.22732C0.496672 2.66509 0.37598 2.99092 0.259855 3.40697L0.167276 3.74282C-0.163529 4.9375 -0.00488676 6.2107 0.653912 7.2784C1.51299 8.67526 3.11887 9.55249 4.82015 9.55249C6.09436 9.55249 7.33097 9.06458 8.23203 8.20742C9.45916 7.04114 9.91346 5.33183 9.47286 3.74282" fill="#FFC350"/>
<path d="M257.03 340.053C259.639 339.505 260.906 336.474 259.651 334.297C259.189 333.495 258.223 333 257.274 333C256.261 333 255.445 333.516 254.899 334.297C254.615 334.704 254.553 335.167 254.362 335.603C254.411 335.492 254.461 335.38 254.511 335.268C254.524 335.239 254.482 335.217 254.465 335.244V335.244C254.568 335.117 254.672 334.99 254.775 334.863C254.79 334.845 254.764 334.82 254.746 334.836V334.836C254.906 334.719 255.067 334.602 255.227 334.485C255.239 334.476 255.227 334.456 255.214 334.464V334.464C255.458 334.365 255.702 334.267 255.948 334.168V334.168C255.932 334.172 255.937 334.196 255.953 334.194C256.169 334.166 256.386 334.139 256.603 334.111V334.111C256.575 334.112 256.573 334.154 256.601 334.157C256.781 334.181 256.962 334.204 257.143 334.226L257.03 334.211C256.139 334.091 255.388 334.066 254.576 334.517C253.608 335.057 253 336.064 253 337.132C253 339.177 255.024 340.476 257.03 340.053" fill="#FFC350"/>
<path d="M383.03 269.053C385.639 268.505 386.906 265.474 385.651 263.297C385.189 262.495 384.223 262 383.274 262C382.261 262 381.445 262.516 380.899 263.297C380.615 263.704 380.553 264.167 380.362 264.603C380.411 264.492 380.461 264.38 380.511 264.268C380.524 264.239 380.482 264.217 380.465 264.244V264.244C380.568 264.117 380.672 263.99 380.775 263.863C380.79 263.845 380.764 263.82 380.746 263.836V263.836C380.906 263.719 381.067 263.602 381.227 263.485C381.239 263.476 381.227 263.456 381.214 263.464V263.464C381.458 263.365 381.702 263.267 381.948 263.168V263.168C381.932 263.172 381.937 263.196 381.953 263.194C382.169 263.166 382.386 263.139 382.603 263.111V263.111C382.575 263.112 382.573 263.154 382.601 263.157C382.781 263.181 382.962 263.204 383.143 263.226L383.03 263.211C382.139 263.091 381.388 263.066 380.576 263.517C379.608 264.057 379 265.064 379 266.132C379 268.177 381.024 269.476 383.03 269.053" fill="#FFC350"/>
</svg>
