<svg width="802" height="553" viewBox="0 0 802 553" fill="none" xmlns="http://www.w3.org/2000/svg">
<path d="M706.406 410.226C707.515 410.096 708.092 410.057 709.074 409.547C709.971 409.083 710.403 408.524 710.995 407.766C711.324 407.348 711.529 406.778 711.629 406.256C711.793 405.407 711.863 404.827 711.618 403.98C711.371 403.123 710.845 402.414 710.14 401.878C710.035 401.798 709.947 401.914 710.043 402.005C710.142 402.099 710.223 402.024 710.124 401.931C709.442 401.285 708.526 400.803 707.561 400.899C706.763 400.978 706.404 400.985 705.702 401.377C705.597 401.435 705.503 401.493 705.416 401.553C705.21 401.695 705.41 401.914 705.613 401.766C705.805 401.625 705.675 401.374 705.462 401.481C705.101 401.661 704.767 401.886 704.457 402.181C703.813 402.793 703.57 403.363 703.261 404.165C703.407 403.837 703.551 403.509 703.697 403.181C703.679 403.212 703.722 403.241 703.744 403.214C703.893 403.03 704.042 402.846 704.19 402.663C704.178 402.675 704.195 402.694 704.209 402.684C704.456 402.502 704.704 402.319 704.951 402.137C704.93 402.149 704.945 402.181 704.968 402.172C705.235 402.066 705.501 401.958 705.768 401.851L705.576 401.902C705.967 401.853 706.36 401.804 706.751 401.752L706.406 401.765C703.982 401.655 701.957 403.77 701.957 405.995C701.957 407.113 702.429 408.198 703.26 408.986C704.007 409.697 705.306 410.355 706.406 410.226Z" fill="#FFC350"/>
<path d="M737.978 208.467L737.88 208.112L737.847 207.994C737.611 207.195 737.186 206.502 736.572 205.912C735.953 205.328 735.224 204.925 734.384 204.701C733.956 204.551 733.747 204.515 733.066 204.515C732.386 204.515 732.183 204.549 731.76 204.697C731.353 204.838 730.955 204.997 730.564 205.175C729.819 205.595 729.226 206.159 728.785 206.867C728.502 207.329 728.374 207.673 728.252 208.112L728.154 208.467C727.805 209.728 727.972 211.072 728.668 212.199C729.575 213.674 731.27 214.6 733.066 214.6C734.411 214.6 735.717 214.085 736.668 213.18C737.964 211.949 738.443 210.144 737.978 208.467Z" fill="#FFC350"/>
<path d="M668.183 433.862C668.172 433.854 668.159 433.869 668.167 433.879C668.788 434.647 669.409 435.415 670.031 436.185C670.072 436.236 670.153 436.196 670.139 436.132C670.005 435.557 669.482 434.606 668.984 434.222C668.762 434.051 668.544 433.876 668.317 433.717C667.991 433.487 667.841 433.779 668.164 434.015C668.446 434.221 668.729 434.427 669.011 434.634C669.109 434.706 669.238 434.599 669.186 434.49C668.841 433.936 668.377 433.493 667.794 433.165C667.188 432.832 666.535 432.664 665.835 432.662C665.134 432.664 664.481 432.832 663.876 433.165C663.292 433.493 662.828 433.936 662.483 434.49C662.431 434.599 662.56 434.706 662.658 434.634C662.941 434.427 663.223 434.221 663.506 434.014C663.828 433.778 663.679 433.486 663.352 433.716C663.135 433.869 662.925 434.036 662.712 434.2C662.195 434.601 661.671 435.527 661.53 436.132C661.516 436.196 661.597 436.236 661.639 436.185C662.26 435.415 662.881 434.647 663.502 433.879C663.51 433.869 663.497 433.854 663.486 433.862C662.787 434.255 662.23 434.784 661.816 435.449C661.187 436.472 661.017 437.718 661.347 438.861C661.896 440.759 663.765 442.11 665.835 442.11C667.904 442.11 669.773 440.759 670.322 438.861C670.436 438.456 670.492 438.051 670.488 437.646C670.481 436.877 670.164 436.153 669.853 435.449C669.439 434.784 668.882 434.255 668.183 433.862Z" fill="#FFC350"/>
<path d="M743.498 387.426C745.076 387.426 746.609 386.822 747.724 385.76C748.84 384.698 749.475 383.243 749.475 381.74C749.475 380.239 748.84 378.782 747.724 377.72C746.609 376.66 745.076 376.057 743.498 376.057C741.919 376.057 740.387 376.66 739.271 377.72C738.155 378.782 737.521 380.239 737.521 381.74C737.521 383.243 738.155 384.698 739.271 385.76C740.387 386.822 741.919 387.426 743.498 387.426Z" fill="#FFC350"/>
<path d="M680.55 403.79C680.626 403.065 680.599 402.313 680.281 401.642C680.263 401.603 680.228 401.621 680.246 401.66C680.263 401.699 680.298 401.686 680.281 401.647C680.115 401.257 679.858 400.939 679.547 400.609C678.989 400.017 678.066 399.703 677.246 399.703C676.387 399.703 675.553 400.031 674.946 400.609C673.484 401.999 673.767 404.493 675.604 405.469C675.706 405.523 675.753 405.42 675.652 405.364C675.453 405.254 675.254 405.143 675.055 405.032C675.048 405.028 675.04 405.038 675.046 405.044C674.904 404.868 674.762 404.693 674.62 404.518C674.613 404.509 674.599 404.519 674.605 404.529C674.549 404.402 674.492 404.275 674.436 404.148C674.418 404.108 674.357 404.128 674.367 404.171C674.329 403.903 674.291 403.636 674.254 403.37L674.302 403.79C674.375 404.316 674.457 404.856 674.739 405.306C674.87 405.516 675.03 405.711 675.217 405.891C675.8 406.446 676.601 406.762 677.426 406.762C678.251 406.762 679.052 406.446 679.635 405.891C679.798 405.691 679.961 405.49 680.124 405.289C680.406 404.827 680.548 404.326 680.55 403.79Z" fill="#FFC350"/>
<path d="M599.574 498.781C599.355 498.528 599.115 498.303 598.843 498.107C598.795 498.073 598.768 498.115 598.815 498.15C598.92 498.227 599.025 498.304 599.129 498.381C599.132 498.383 599.136 498.379 599.134 498.376C599.131 498.373 599.126 498.376 599.128 498.38C599.355 498.749 599.581 499.119 599.807 499.488C599.847 499.552 599.944 499.505 599.916 499.435C599.738 498.828 599.414 498.301 598.948 497.855C598.244 497.184 597.279 496.805 596.284 496.805C595.604 496.807 594.97 496.969 594.383 497.294C593.48 497.796 593.006 498.528 592.652 499.435C592.624 499.505 592.721 499.552 592.761 499.488C592.987 499.119 593.213 498.749 593.439 498.38C593.442 498.376 593.437 498.373 593.434 498.376C593.432 498.379 593.435 498.383 593.439 498.381C593.543 498.304 593.648 498.227 593.753 498.15C593.8 498.115 593.773 498.073 593.725 498.107C593.453 498.303 593.212 498.528 592.994 498.781C592.417 499.333 592.019 499.984 591.797 500.734C591.576 501.518 591.576 502.303 591.797 503.086C592.346 504.984 594.215 506.335 596.284 506.335C597.925 506.335 599.472 505.489 600.301 504.143C600.722 503.453 600.934 502.709 600.936 501.91C600.936 500.645 600.387 499.726 599.574 498.781Z" fill="#FFC350"/>
<path d="M622.945 375.667C626.669 375.667 626.669 370.176 622.945 370.176C619.222 370.176 619.222 375.667 622.945 375.667Z" fill="#FFC350"/>
<path d="M609.035 474.821C611.201 474.821 613.008 473.101 613.008 471.041C613.008 468.98 611.201 467.262 609.035 467.262C606.869 467.262 605.062 468.98 605.062 471.041C605.062 473.101 606.869 474.821 609.035 474.821Z" fill="#FFC350"/>
<path d="M639.174 407.408C644.079 407.408 644.079 400.172 639.174 400.172C634.268 400.172 634.268 407.408 639.174 407.408Z" fill="#FFC350"/>
<path d="M795.217 147.594L794.92 147.864C793.561 149.092 793.561 151.35 794.92 152.579L795.217 152.847C796.233 153.766 797.646 154.161 799.017 153.803C800.692 153.364 801.884 151.873 801.884 150.221C801.884 148.912 801.137 147.675 799.95 147.014C798.407 146.153 796.493 146.442 795.217 147.594Z" fill="#FFC350"/>
<path d="M700.609 293.784C703.275 293.784 705.499 291.669 705.499 289.132C705.499 286.598 703.275 284.483 700.609 284.483C697.943 284.483 695.719 286.598 695.719 289.132C695.719 291.669 697.943 293.784 700.609 293.784Z" fill="#FFC350"/>
<path d="M663.516 333.579C664.979 333.579 666.199 332.418 666.199 331.026C666.199 329.636 664.979 328.476 663.516 328.476C662.053 328.476 660.833 329.636 660.833 331.026C660.833 332.418 662.053 333.579 663.516 333.579Z" fill="#FFC350"/>
<path d="M695.973 326.992C698.083 326.992 699.845 325.316 699.845 323.309C699.845 321.302 698.083 319.628 695.973 319.628C693.862 319.628 692.101 321.302 692.101 323.309C692.101 325.316 693.862 326.992 695.973 326.992Z" fill="#FFC350"/>
<path d="M684.381 224.526C685.007 224.501 685.588 224.455 686.221 224.357C686.882 224.18 687.455 223.863 687.942 223.402C688.67 222.711 689.084 221.76 689.084 220.779C689.082 220.111 688.905 219.486 688.552 218.908C688.348 218.657 688.145 218.407 687.942 218.156C687.455 217.698 686.882 217.378 686.221 217.204C685.588 217.103 685.007 217.059 684.381 217.033C682.234 216.946 680.441 218.804 680.441 220.779C680.441 222.757 682.234 224.612 684.381 224.526Z" fill="#FFC350"/>
<path d="M387.16 101.676C387.786 101.651 388.367 101.605 389 101.506C389.661 101.33 390.234 101.013 390.721 100.552C391.449 99.8608 391.863 98.91 391.863 97.9293C391.861 97.2607 391.683 96.6363 391.331 96.0577C391.127 95.8072 390.924 95.5567 390.721 95.3062C390.234 94.8476 389.661 94.5283 389 94.3537C388.367 94.2532 387.786 94.2091 387.16 94.1826C385.013 94.0962 383.22 95.9536 383.22 97.9293C383.22 99.9067 385.013 101.762 387.16 101.676Z" fill="#FFC350"/>
<path d="M677.997 364.364C678.037 364.147 678.079 363.931 678.119 363.714C678.363 362.425 678.312 361.942 678.088 360.638L678.014 360.208C677.837 359.183 677.146 358.486 676.499 357.715C675.68 356.74 674.045 356.255 672.79 356.255C671.535 356.255 669.9 356.74 669.082 357.715C668.428 358.495 667.755 359.177 667.567 360.208L667.493 360.638C667.268 361.942 667.218 362.425 667.461 363.714C667.502 363.931 667.543 364.147 667.583 364.364C667.84 365.233 668.303 365.99 668.972 366.63C669.98 367.588 671.364 368.135 672.79 368.135C673.765 368.131 674.673 367.897 675.516 367.433C676.631 366.812 677.76 365.618 677.997 364.364Z" fill="#FFC350"/>
<path d="M671.431 106.766C671.258 106.681 671.074 106.609 670.917 106.499C670.686 106.341 670.257 106.341 670.025 106.499L669.585 106.73C668.801 107.108 668.405 108.004 668.637 108.808C668.963 109.934 670.37 110.481 671.431 109.888C672.009 109.567 672.373 108.965 672.373 108.327C672.373 107.72 672.018 107.05 671.431 106.766Z" fill="#FFC350"/>
<path d="M752.965 154.63C752.915 153.962 752.96 153.094 752.546 152.553C752.331 152.207 752.042 151.93 751.676 151.725C751.298 151.517 750.89 151.411 750.453 151.411C750.015 151.411 749.607 151.517 749.228 151.725C748.864 151.93 748.574 152.207 748.358 152.553C747.946 153.094 747.99 153.962 747.94 154.63C747.894 155.239 748.235 155.9 748.676 156.32C749.145 156.767 749.789 157.021 750.453 157.021C751.116 157.021 751.76 156.767 752.229 156.32C752.671 155.9 753.012 155.239 752.965 154.63Z" fill="#FFC350"/>
<path d="M644.321 171.833C644.2 171.551 644.094 171.252 643.937 170.986L643.824 170.834C643.99 171.055 643.877 170.935 643.839 170.813C643.69 170.344 643.58 169.894 643.228 169.518C642.945 169.215 642.358 169.215 642.075 169.518C641.741 169.875 641.63 170.288 641.49 170.732L641.439 170.894C641.353 171.164 641.604 170.67 641.425 170.907C641.218 171.18 641.115 171.522 640.982 171.833C640.545 172.845 641.628 173.918 642.651 173.918C643.674 173.918 644.758 172.845 644.321 171.833Z" fill="#FFC350"/>
<path d="M613.867 26.7438C613.867 26.4828 613.867 26.2217 613.867 25.9606C613.867 25.1654 613.487 24.5525 612.908 24.1204C612.708 23.9712 612.563 24.2034 612.743 24.3754C612.921 24.5442 613.217 24.3545 613.093 24.1438C612.783 23.6216 612.006 23.1506 611.354 23.1506C610.884 23.1506 610.265 23.4382 609.93 23.7557C609.811 23.8691 609.714 23.9944 609.631 24.1273C609.499 24.3393 609.791 24.5398 609.973 24.3675C610.153 24.1955 609.997 23.9626 609.795 24.1098C609.391 24.4049 609.084 24.7967 608.93 25.3256C608.8 25.7754 608.841 26.2799 608.841 26.7438C608.841 28.0474 609.984 29.134 611.354 29.134C612.724 29.134 613.867 28.0474 613.867 26.7438Z" fill="#FFC350"/>
<path d="M621.786 133.708C624.807 133.708 624.807 129.251 621.786 129.251C618.764 129.251 618.764 133.708 621.786 133.708Z" fill="#FFC350"/>
<path d="M633.732 349.181L633.783 349.477C633.863 349.936 634.289 350.379 634.695 350.605C635.153 350.86 635.712 350.929 636.224 350.795C636.719 350.665 637.15 350.349 637.41 349.927C637.7 349.456 637.701 348.994 637.61 348.474C637.54 348.079 637.471 347.682 637.402 347.287C637.274 346.56 636.421 346.052 635.696 346.052C634.972 346.052 634.118 346.56 633.991 347.287C633.921 347.682 633.853 348.079 633.783 348.474C633.692 348.994 633.692 349.456 633.983 349.927C634.243 350.349 634.673 350.665 635.169 350.795C635.681 350.929 636.24 350.86 636.698 350.605C637.103 350.379 637.529 349.936 637.61 349.477L637.661 349.181C637.755 348.647 637.754 348.174 637.456 347.689C637.093 347.1 636.415 346.729 635.696 346.729C635.158 346.729 634.636 346.934 634.255 347.295C634.003 347.537 633.829 347.823 633.732 348.151C633.634 348.495 633.634 348.839 633.732 349.181Z" fill="#FFC350"/>
<path d="M619.467 439.351C622.84 439.351 622.84 434.377 619.467 434.377C616.095 434.377 616.095 439.351 619.467 439.351Z" fill="#FFC350"/>
<path d="M733.065 67.5953C734.642 67.5953 734.642 65.2705 733.065 65.2705C731.489 65.2705 731.489 67.5953 733.065 67.5953Z" fill="#FFC350"/>
<path d="M742.837 60.4476L742.713 60.3418C742.27 59.9661 741.802 59.6521 741.18 59.6521C740.569 59.6521 740.104 59.9537 739.667 60.3241L739.523 60.4476C738.91 60.968 738.708 61.8817 738.921 62.6155C739.197 63.5716 740.138 64.2525 741.18 64.2525C742.007 64.2525 742.786 63.8256 743.204 63.1482C743.714 62.3209 743.616 61.1091 742.837 60.4476Z" fill="#FFC350"/>
<path d="M749.294 40.0614C752.404 40.0614 752.404 35.4751 749.294 35.4751C746.184 35.4751 746.184 40.0614 749.294 40.0614Z" fill="#FFC350"/>
<path d="M776.866 31.0726L776.404 31.263C776.022 31.48 775.716 31.7693 775.49 32.1345C775.258 32.5137 775.143 32.9212 775.141 33.3586C775.143 33.7979 775.258 34.2053 775.49 34.5846C775.716 34.948 776.022 35.239 776.404 35.4542L776.866 35.6465C777.302 35.8864 777.769 36.0064 778.272 36.0081C778.775 36.0064 779.244 35.8864 779.678 35.6465C780.525 35.1738 781.058 34.2935 781.058 33.3586C781.058 32.4255 780.525 31.5435 779.678 31.0726C779.244 30.8327 778.775 30.7109 778.272 30.7109C777.769 30.7109 777.302 30.8327 776.866 31.0726Z" fill="#FFC350"/>
<path d="M742.737 27.8465L742.709 27.4672L742.683 27.1233L742.671 26.9681C742.617 26.2466 742.397 25.7033 741.877 25.1671C740.933 24.1969 739.108 24.1969 738.164 25.1671C737.821 25.5199 737.6 25.8303 737.464 26.2977C737.393 26.5412 737.38 26.8216 737.361 27.0827L737.335 27.4249L737.304 27.8465C737.254 28.5045 737.622 29.2206 738.099 29.6739C738.606 30.1573 739.302 30.4307 740.02 30.4307C740.738 30.4307 741.435 30.1573 741.942 29.6739C742.419 29.2206 742.786 28.5045 742.737 27.8465Z" fill="#FFC350"/>
<path d="M753.93 14.4964C753.451 14.5352 752.971 14.5652 752.496 14.6464C752.094 14.7522 751.745 14.9463 751.45 15.2267C751.006 15.6465 750.754 16.2251 750.754 16.8213C750.755 17.2288 750.863 17.6081 751.078 17.9609C751.365 18.4265 751.917 18.901 752.496 18.998C752.971 19.0792 753.451 19.1092 753.93 19.148C754.547 19.1974 755.234 18.871 755.658 18.4671C756.116 18.0314 756.376 17.4352 756.376 16.8213C756.376 16.2075 756.116 15.6113 755.658 15.1773C755.234 14.7734 754.547 14.447 753.93 14.4964Z" fill="#FFC350"/>
<path d="M719.9 34.1314L719.529 34.2337L719.195 34.3255C718.598 34.4878 718.139 34.9517 718.139 35.5638C718.139 36.1512 718.574 36.6327 719.156 36.7933L719.489 36.885L719.9 36.9961C720.878 37.266 721.877 36.5216 721.877 35.5638C721.877 34.6077 720.878 33.8633 719.9 34.1314Z" fill="#FFC350"/>
<path d="M695.149 76.6269C694.926 76.2759 694.685 75.9566 694.374 75.6708C693.972 75.2986 693.336 75.2986 692.934 75.6708C692.623 75.9566 692.382 76.2759 692.159 76.6269C691.476 77.7011 692.356 79.1052 693.654 79.1052C694.952 79.1052 695.832 77.7011 695.149 76.6269Z" fill="#FFC350"/>
<path d="M698.29 30.951C701.006 30.951 701.006 26.9468 698.29 26.9468C695.575 26.9468 695.575 30.951 698.29 30.951Z" fill="#FFC350"/>
<path d="M687.859 57.7015C689.173 57.7015 690.27 56.659 690.27 55.4083C690.27 54.1595 689.173 53.1152 687.859 53.1152C686.544 53.1152 685.448 54.1595 685.448 55.4083C685.448 56.659 686.544 57.7015 687.859 57.7015Z" fill="#FFC350"/>
<path d="M784.068 71.3506C787.748 71.3506 787.748 65.9246 784.068 65.9246C780.39 65.9246 780.39 71.3506 784.068 71.3506Z" fill="#FFC350"/>
<path d="M744.658 101.02C748.205 101.02 748.205 95.7886 744.658 95.7886C741.11 95.7886 741.11 101.02 744.658 101.02Z" fill="#FFC350"/>
<path d="M643.81 6.40197C647.62 6.40197 647.62 0.781982 643.81 0.781982C639.999 0.781982 639.999 6.40197 643.81 6.40197Z" fill="#FFC350"/>
<path d="M663.516 27.6118C666.188 27.6118 666.188 23.6711 663.516 23.6711C660.844 23.6711 660.844 27.6118 663.516 27.6118Z" fill="#FFC350"/>
<path d="M612.513 419.41C615.754 419.41 615.754 414.629 612.513 414.629C609.271 414.629 609.271 419.41 612.513 419.41Z" fill="#FFC350"/>
<path d="M654.661 102.285C647.063 102.285 640.873 96.5535 640.61 89.3871C640.61 89.3823 640.606 89.3784 640.601 89.3784C640.595 89.3784 640.591 89.3829 640.59 89.3886C640.328 96.5543 634.138 102.285 626.54 102.285L626.965 102.292L626.54 102.299C634.138 102.299 640.328 108.03 640.59 115.196C640.591 115.202 640.595 115.206 640.601 115.206C640.606 115.206 640.61 115.202 640.61 115.197C640.873 108.031 647.063 102.299 654.661 102.299L654.236 102.292L654.661 102.285Z" fill="#FFC350"/>
<path d="M333.219 539.925C325.621 539.925 319.431 534.193 319.169 527.027C319.168 527.022 319.164 527.018 319.16 527.018C319.154 527.018 319.149 527.022 319.149 527.028C318.886 534.194 312.697 539.925 305.098 539.925L305.523 539.932L305.098 539.939C312.697 539.939 318.886 545.67 319.149 552.835C319.149 552.841 319.154 552.846 319.16 552.846C319.164 552.846 319.168 552.842 319.169 552.837C319.431 545.671 325.621 539.939 333.219 539.939L332.795 539.932L333.219 539.925Z" fill="#FFC350"/>
<path d="M42.901 74.3598C35.303 74.3598 29.1128 68.6281 28.8503 61.4617C28.8501 61.4568 28.8461 61.4529 28.8412 61.4529C28.8355 61.4529 28.8309 61.4575 28.8307 61.4632C28.5679 68.6289 22.3782 74.3598 14.7798 74.3598L15.2051 74.3669L14.7798 74.3739C22.3782 74.3739 28.5679 80.1049 28.8307 87.2706C28.8309 87.2763 28.8355 87.2808 28.8412 87.2808C28.8461 87.2808 28.8501 87.2769 28.8503 87.2721C29.1128 80.1057 35.303 74.3739 42.901 74.3739L42.4765 74.3669L42.901 74.3598Z" fill="#FFC350"/>
<path d="M28.1222 526.201C20.5232 526.201 14.3345 520.467 14.0716 513.303C14.0714 513.298 14.0672 513.294 14.062 513.294C14.0568 513.294 14.0526 513.298 14.0524 513.303C13.7896 520.467 7.59894 526.201 0 526.201L0.424724 526.208L0 526.215C7.59894 526.215 13.7896 531.946 14.0524 539.112C14.0526 539.117 14.0568 539.122 14.062 539.122C14.0672 539.122 14.0714 539.117 14.0716 539.112C14.3345 531.946 20.5232 526.215 28.1222 526.215L27.6975 526.208L28.1222 526.201Z" fill="#FFC350"/>
<path d="M491.966 535.363L491.985 535.711L491.992 535.827C492.051 536.614 492.304 537.341 492.754 538.01C493.21 538.675 493.804 539.195 494.536 539.571C494.903 539.796 495.089 539.871 495.719 540.007C496.349 540.144 496.543 540.154 496.965 540.102C497.369 540.053 497.77 539.986 498.168 539.9C498.942 539.66 499.604 539.257 500.154 538.691C500.509 538.32 500.696 538.027 500.898 537.645L501.06 537.337C501.637 536.239 501.752 534.961 501.334 533.778C500.791 532.231 499.408 531.033 497.745 530.672C496.5 530.402 495.188 530.617 494.126 531.263C492.679 532.143 491.872 533.717 491.966 535.363Z" fill="#FFC350"/>
<path d="M544.807 531.266C544.223 531.163 543.676 531.089 543.07 531.053C542.423 531.083 541.828 531.262 541.285 531.59C540.472 532.084 539.898 532.881 539.701 533.789C539.568 534.408 539.607 535.022 539.817 535.628C539.956 535.901 540.093 536.174 540.231 536.447C540.59 536.969 541.056 537.38 541.633 537.674C542.198 537.894 542.727 538.052 543.301 538.202C545.271 538.713 547.304 537.354 547.701 535.525C548.099 533.695 546.812 531.617 544.807 531.266Z" fill="#FFC350"/>
<path d="M588.089 502.793C587.998 502.023 587.905 501.157 587.171 500.653C586.856 500.436 586.571 500.246 586.248 500.062L586.225 500.05C585.446 499.606 584.399 499.556 583.564 499.809C582.417 500.157 581.543 501.082 581.298 502.21C580.919 503.954 582.134 505.741 583.967 506.139C584.856 506.332 585.791 506.179 586.549 505.718C587.534 505.12 588.227 503.943 588.089 502.793Z" fill="#FFC350"/>
<path d="M747.61 502.555L747.479 502.082C747.158 500.974 746.069 500.186 744.86 500.186C743.651 500.186 742.564 500.974 742.241 502.082L742.109 502.555C741.638 504.259 742.99 505.989 744.86 505.989C746.731 505.989 748.083 504.259 747.61 502.555Z" fill="#FFC350"/>
<path d="M701.971 501.064C704.949 501.064 704.949 496.67 701.971 496.67C698.992 496.67 698.992 501.064 701.971 501.064Z" fill="#FFC350"/>
<path d="M705.45 506.746C705.668 506.746 705.668 506.423 705.45 506.423C705.231 506.423 705.231 506.746 705.45 506.746Z" fill="#FFC350"/>
<path d="M708.926 512.156C710.503 512.156 710.503 509.831 708.926 509.831C707.35 509.831 707.35 512.156 708.926 512.156Z" fill="#FFC350"/>
<path d="M715.882 498.051C717.765 498.051 717.765 495.273 715.882 495.273C713.998 495.273 713.998 498.051 715.882 498.051Z" fill="#FFC350"/>
<path d="M704.577 487.272C704.642 487.522 704.707 487.774 704.771 488.025C704.971 488.805 705.779 489.355 706.608 489.355C707.437 489.355 708.245 488.805 708.444 488.025C708.509 487.774 708.573 487.522 708.639 487.272C708.962 486.012 708.007 484.737 706.608 484.737C705.209 484.737 704.253 486.012 704.577 487.272Z" fill="#FFC350"/>
<path d="M718.698 505.008L718.574 504.902C718.131 504.527 717.663 504.213 717.041 504.213C716.43 504.213 715.965 504.514 715.528 504.885L715.384 505.008C714.771 505.529 714.569 506.442 714.782 507.176C715.058 508.132 715.999 508.813 717.041 508.813C717.868 508.813 718.647 508.386 719.065 507.709C719.575 506.881 719.477 505.67 718.698 505.008Z" fill="#FFC350"/>
<path d="M725.155 484.622C728.265 484.622 728.265 480.036 725.155 480.036C722.045 480.036 722.045 484.622 725.155 484.622Z" fill="#FFC350"/>
<path d="M752.727 475.633L752.265 475.824C751.883 476.041 751.577 476.33 751.351 476.695C751.119 477.074 751.004 477.482 751.002 477.919C751.004 478.358 751.119 478.766 751.351 479.145C751.577 479.509 751.883 479.8 752.265 480.015L752.727 480.207C753.163 480.447 753.63 480.567 754.133 480.569C754.636 480.567 755.105 480.447 755.539 480.207C756.386 479.734 756.919 478.854 756.919 477.919C756.919 476.986 756.386 476.104 755.539 475.633C755.105 475.393 754.636 475.271 754.133 475.271C753.63 475.271 753.163 475.393 752.727 475.633Z" fill="#FFC350"/>
<path d="M718.598 472.407L718.57 472.028L718.544 471.684L718.532 471.529C718.478 470.807 718.258 470.264 717.738 469.728C716.794 468.757 714.969 468.757 714.025 469.728C713.682 470.08 713.461 470.391 713.325 470.858C713.254 471.102 713.241 471.382 713.222 471.643L713.196 471.985L713.165 472.407C713.115 473.065 713.483 473.781 713.96 474.234C714.467 474.718 715.163 474.991 715.881 474.991C716.599 474.991 717.296 474.718 717.803 474.234C718.28 473.781 718.647 473.065 718.598 472.407Z" fill="#FFC350"/>
<path d="M695.761 478.692L695.39 478.794L695.056 478.886C694.459 479.048 694 479.512 694 480.124C694 480.712 694.435 481.193 695.017 481.354L695.35 481.446L695.761 481.557C696.739 481.827 697.738 481.082 697.738 480.124C697.738 479.168 696.739 478.424 695.761 478.692Z" fill="#FFC350"/>
<path d="M747.352 526.145L747.215 525.883C746.788 525.066 745.831 524.487 744.86 524.487C743.908 524.487 742.94 525.048 742.521 525.851L742.367 526.145C742.107 526.574 741.976 527.034 741.974 527.53C741.976 528.026 742.107 528.488 742.367 528.917C742.883 529.751 743.841 530.275 744.86 530.275C745.878 530.275 746.839 529.751 747.352 528.917C747.614 528.488 747.745 528.026 747.747 527.53C747.745 527.034 747.614 526.574 747.352 526.145Z" fill="#FFC350"/>
<path d="M759.929 515.911C763.609 515.911 763.609 510.485 759.929 510.485C756.251 510.485 756.251 515.911 759.929 515.911Z" fill="#FFC350"/>
<path d="M767.577 522.018C767.577 522.344 767.577 522.669 767.577 522.995C767.577 524.438 768.844 525.643 770.361 525.643C771.88 525.643 773.147 524.438 773.147 522.995C773.147 522.669 773.147 522.344 773.147 522.018C773.147 520.575 771.88 519.37 770.361 519.37C768.844 519.37 767.577 520.575 767.577 522.018Z" fill="#FFC350"/>
<path d="M785.431 504.272C788.278 504.272 788.278 500.074 785.431 500.074C782.584 500.074 782.584 504.272 785.431 504.272Z" fill="#FFC350"/>
<path d="M790.536 478.436C790.807 478.395 791.076 478.355 791.347 478.314C792.053 478.207 792.545 477.45 792.545 476.817C792.545 476.185 792.053 475.427 791.347 475.321C791.076 475.278 790.807 475.238 790.536 475.197C790.047 475.123 789.62 475.12 789.177 475.367C788.639 475.666 788.301 476.224 788.301 476.817C788.301 477.261 788.489 477.691 788.819 478.004C789.04 478.214 789.299 478.356 789.598 478.436C789.911 478.517 790.225 478.517 790.536 478.436Z" fill="#FFC350"/>
<path d="M798.745 483.581C798.443 483.641 798.141 483.703 797.838 483.763C796.955 483.941 796.338 484.812 796.338 485.636C796.338 486.46 796.955 487.333 797.838 487.509C798.141 487.571 798.443 487.631 798.745 487.691C799.348 487.813 799.928 487.779 800.472 487.478C801.154 487.097 801.583 486.388 801.583 485.636C801.583 485.073 801.344 484.527 800.926 484.13C800.335 483.567 799.541 483.421 798.745 483.581Z" fill="#FFC350"/>
<path d="M757.611 482.846C758.312 482.846 758.312 481.812 757.611 481.812C756.91 481.812 756.91 482.846 757.611 482.846Z" fill="#FFC350"/>
<path d="M784.272 526.775C787.733 526.775 787.733 521.672 784.272 521.672C780.813 521.672 780.813 526.775 784.272 526.775Z" fill="#FFC350"/>
<path d="M782.89 540.212C782.817 539.845 782.747 539.522 782.537 539.189L782.454 539.074C782.161 538.719 782.076 538.614 782.201 538.761C782.217 538.78 782.248 538.759 782.235 538.737C781.947 538.345 781.636 538.038 781.22 537.769C780.849 537.527 780.401 537.479 779.968 537.403C778.987 537.229 778.24 537.94 778.424 538.873C778.47 539.114 778.518 539.354 778.559 539.594C778.605 539.876 778.835 540.132 778.971 540.383C778.722 539.922 778.839 540.067 778.883 540.224L778.896 540.289C778.776 539.892 778.819 539.525 779.026 539.189C778.858 539.562 778.774 539.832 778.698 540.212C778.438 541.515 779.293 542.827 780.794 542.827C782.292 542.827 783.151 541.515 782.89 540.212Z" fill="#FFC350"/>
<path d="M720.519 545.581C724.066 545.581 724.066 540.349 720.519 540.349C716.971 540.349 716.971 545.581 720.519 545.581Z" fill="#FFC350"/>
<path d="M535.533 104.998C517.285 104.998 502.421 91.232 501.79 74.023C501.79 74.01 501.78 74 501.767 74C501.754 74 501.744 74.01 501.743 74.023C501.112 91.232 486.248 104.998 468 104.998C468.342 104.998 468.682 105.005 469.02 105.014C468.682 105.025 468.342 105.03 468 105.03C486.248 105.03 501.112 118.797 501.743 136.005C501.744 136.018 501.754 136.028 501.767 136.028C501.78 136.028 501.79 136.018 501.79 136.005C502.421 118.798 517.285 105.03 535.533 105.03C535.192 105.03 534.852 105.025 534.513 105.014C534.852 105.005 535.192 104.998 535.533 104.998Z" fill="#FFC350"/>
</svg>
